<svg width="266" height="267" viewBox="0 0 266 267" fill="none" xmlns="http://www.w3.org/2000/svg">
<rect x="132" y="266" width="266" height="3" transform="rotate(-90 132 266)" fill="#090909"/>
<rect x="125.041" y="265.739" width="266" height="3" transform="rotate(-87 125.041 265.739)" fill="#090909"/>
<rect x="118.105" y="265.115" width="266" height="3" transform="rotate(-84 118.105 265.115)" fill="#090909"/>
<rect x="111.212" y="264.128" width="266" height="3" transform="rotate(-81 111.212 264.128)" fill="#090909"/>
<rect x="104.38" y="262.782" width="266" height="3" transform="rotate(-78 104.38 262.782)" fill="#090909"/>
<rect x="97.6277" y="261.08" width="266" height="3" transform="rotate(-75 97.6277 261.08)" fill="#090909"/>
<rect x="90.9736" y="259.027" width="266" height="3" transform="rotate(-72 90.9736 259.027)" fill="#090909"/>
<rect x="84.4363" y="256.629" width="266" height="3" transform="rotate(-69 84.4363 256.629)" fill="#090909"/>
<rect x="78.0332" y="253.891" width="266" height="3" transform="rotate(-66 78.0332 253.891)" fill="#090909"/>
<rect x="71.78" y="250.858" width="266" height="3" transform="rotate(-63 71.78 250.858)" fill="#090909"/>
<rect x="65.6934" y="247.501" width="266" height="3" transform="rotate(-60 65.6934 247.501)" fill="#090909"/>
<rect x="59.79" y="243.83" width="266" height="3" transform="rotate(-57 59.79 243.83)" fill="#090909"/>
<rect x="54.0867" y="239.855" width="266" height="3" transform="rotate(-54 54.0867 239.855)" fill="#090909"/>
<rect x="48.5984" y="235.586" width="266" height="3" transform="rotate(-51 48.5984 235.586)" fill="#090909"/>
<rect x="43.3403" y="231.036" width="266" height="3" transform="rotate(-48 43.3403 231.036)" fill="#090909"/>
<rect x="38.3271" y="226.217" width="266" height="3" transform="rotate(-45 38.3271 226.217)" fill="#090909"/>
<rect x="33.5725" y="221.142" width="266" height="3" transform="rotate(-42 33.5725 221.142)" fill="#090909"/>
<rect x="29.0896" y="215.824" width="266" height="3" transform="rotate(-39 29.0896 215.824)" fill="#090909"/>
<rect x="24.8906" y="210.279" width="266" height="3" transform="rotate(-36 24.8906 210.279)" fill="#090909"/>
<rect x="20.9871" y="204.521" width="266" height="3" transform="rotate(-33 20.9871 204.521)" fill="#090909"/>
<rect x="17.3901" y="198.567" width="266" height="3" transform="rotate(-30 17.3901 198.567)" fill="#090909"/>
<rect x="14.1091" y="192.431" width="266" height="3" transform="rotate(-27 14.1091 192.431)" fill="#090909"/>
<rect x="11.1533" y="186.132" width="266" height="3" transform="rotate(-24 11.1533 186.132)" fill="#090909"/>
<rect x="8.53076" y="179.687" width="266" height="3" transform="rotate(-21 8.53076 179.687)" fill="#090909"/>
<rect x="6.24927" y="173.112" width="266" height="3" transform="rotate(-18 6.24927 173.112)" fill="#090909"/>
<rect x="4.3147" y="166.427" width="266" height="3" transform="rotate(-15 4.3147 166.427)" fill="#090909"/>
<rect x="2.73218" y="159.648" width="266" height="3" transform="rotate(-12 2.73218 159.648)" fill="#090909"/>
<rect x="1.50684" y="152.796" width="266" height="3" transform="rotate(-9 1.50684 152.796)" fill="#090909"/>
<rect x="0.641357" y="145.888" width="266" height="3" transform="rotate(-6 0.641357 145.888)" fill="#090909"/>
<rect x="0.138672" y="138.944" width="266" height="3" transform="rotate(-3 0.138672 138.944)" fill="#090909"/>
<rect y="131.983" width="266" height="3" fill="#090909"/>
<rect x="138.463" y="266.396" width="266" height="3" transform="rotate(-93 138.463 266.396)" fill="#090909"/>
<rect x="145.41" y="265.928" width="266" height="3" transform="rotate(-96 145.41 265.928)" fill="#090909"/>
<rect x="152.324" y="265.097" width="266" height="3" transform="rotate(-99 152.324 265.097)" fill="#090909"/>
<rect x="159.185" y="263.906" width="266" height="3" transform="rotate(-102 159.185 263.906)" fill="#090909"/>
<rect x="165.974" y="262.356" width="266" height="3" transform="rotate(-105 165.974 262.356)" fill="#090909"/>
<rect x="172.673" y="260.454" width="266" height="3" transform="rotate(-108 172.673 260.454)" fill="#090909"/>
<rect x="179.263" y="258.204" width="266" height="3" transform="rotate(-111 179.263 258.204)" fill="#090909"/>
<rect x="185.726" y="255.612" width="266" height="3" transform="rotate(-114 185.726 255.612)" fill="#090909"/>
<rect x="192.044" y="252.685" width="266" height="3" transform="rotate(-117 192.044 252.685)" fill="#090909"/>
<rect x="198.201" y="249.431" width="266" height="3" transform="rotate(-120 198.201 249.431)" fill="#090909"/>
<rect x="204.179" y="245.86" width="266" height="3" transform="rotate(-123 204.179 245.86)" fill="#090909"/>
<rect x="209.962" y="241.981" width="266" height="3" transform="rotate(-126 209.962 241.981)" fill="#090909"/>
<rect x="215.534" y="237.804" width="266" height="3" transform="rotate(-129 215.534 237.804)" fill="#090909"/>
<rect x="220.88" y="233.342" width="266" height="3" transform="rotate(-132 220.88 233.342)" fill="#090909"/>
<rect x="225.985" y="228.606" width="266" height="3" transform="rotate(-135 225.985 228.606)" fill="#090909"/>
<rect x="230.834" y="223.609" width="266" height="3" transform="rotate(-138 230.834 223.609)" fill="#090909"/>
<rect x="235.417" y="218.365" width="266" height="3" transform="rotate(-141 235.417 218.365)" fill="#090909"/>
<rect x="239.718" y="212.889" width="266" height="3" transform="rotate(-144 239.718 212.889)" fill="#090909"/>
<rect x="243.726" y="207.195" width="266" height="3" transform="rotate(-147 243.726 207.195)" fill="#090909"/>
<rect x="247.431" y="201.299" width="266" height="3" transform="rotate(-150 247.431 201.299)" fill="#090909"/>
<rect x="250.823" y="195.217" width="266" height="3" transform="rotate(-153 250.823 195.217)" fill="#090909"/>
<rect x="253.891" y="188.966" width="266" height="3" transform="rotate(-156 253.891 188.966)" fill="#090909"/>
<rect x="256.629" y="182.563" width="266" height="3" transform="rotate(-159 256.629 182.563)" fill="#090909"/>
<rect x="259.027" y="176.026" width="266" height="3" transform="rotate(-162 259.027 176.026)" fill="#090909"/>
<rect x="261.08" y="169.372" width="266" height="3" transform="rotate(-165 261.08 169.372)" fill="#090909"/>
<rect x="262.782" y="162.62" width="266" height="3" transform="rotate(-168 262.782 162.62)" fill="#090909"/>
<rect x="264.128" y="155.787" width="266" height="3" transform="rotate(-171 264.128 155.787)" fill="#090909"/>
<rect x="265.115" y="148.894" width="266" height="3" transform="rotate(-174 265.115 148.894)" fill="#090909"/>
<rect x="265.739" y="141.959" width="266" height="3" transform="rotate(-177 265.739 141.959)" fill="#090909"/>
</svg>
