<svg width="274" height="274" viewBox="0 0 274 274" fill="none" xmlns="http://www.w3.org/2000/svg">
<rect x="135.969" y="273.593" width="24" height="3.09023" transform="rotate(-90 135.969 273.593)" fill="white"/>
<rect width="24" height="3.09021" transform="matrix(0.0524137 -0.998625 0.998634 0.0522583 128.801 273.324)" fill="white"/>
<rect width="24" height="3.09018" transform="matrix(0.104682 -0.994506 0.994538 0.104375 121.657 272.682)" fill="white"/>
<rect width="24" height="3.09011" transform="matrix(0.156662 -0.987652 0.987724 0.156207 114.557 271.667)" fill="white"/>
<rect width="24" height="3.09003" transform="matrix(0.208208 -0.978085 0.978211 0.207616 107.519 270.282)" fill="white"/>
<rect width="24" height="3.08992" transform="matrix(0.259179 -0.965829 0.966022 0.25846 100.564 268.532)" fill="white"/>
<rect width="24" height="3.08979" transform="matrix(0.309433 -0.950921 0.951192 0.308601 93.7097 266.42)" fill="white"/>
<rect width="24" height="3.08964" transform="matrix(0.358833 -0.933402 0.933759 0.357903 86.9758 263.953)" fill="white"/>
<rect width="24" height="3.08947" transform="matrix(0.407242 -0.91332 0.91377 0.406232 80.3801 261.138)" fill="white"/>
<rect width="24" height="3.08928" transform="matrix(0.454527 -0.890733 0.89128 0.453454 73.9387 258.018)" fill="white"/>
<rect width="24" height="3.08908" transform="matrix(0.500558 -0.865703 0.866347 0.499442 67.6692 254.565)" fill="white"/>
<rect width="24" height="3.08886" transform="matrix(0.545209 -0.8383 0.839041 0.544069 61.5881 250.789)" fill="white"/>
<rect width="24" height="3.08864" transform="matrix(0.588358 -0.808601 0.809433 0.587213 55.7134 246.701)" fill="white"/>
<rect width="24" height="3.08841" transform="matrix(0.629886 -0.776688 0.777604 0.628755 50.0601 242.311)" fill="white"/>
<rect width="24" height="3.08817" transform="matrix(0.669681 -0.742649 0.74364 0.66858 44.6438 237.631)" fill="white"/>
<rect width="24" height="3.08793" transform="matrix(0.707633 -0.70658 0.707633 0.70658 39.4797 232.674)" fill="white"/>
<rect width="24" height="3.08769" transform="matrix(0.74364 -0.66858 0.669681 0.742649 34.5823 227.454)" fill="white"/>
<rect width="24" height="3.08745" transform="matrix(0.777604 -0.628755 0.629886 0.776688 29.9644 221.984)" fill="white"/>
<rect width="24" height="3.08722" transform="matrix(0.809433 -0.587213 0.588358 0.808601 25.6392 216.281)" fill="white"/>
<rect width="24" height="3.08699" transform="matrix(0.839041 -0.544069 0.545209 0.8383 21.6182 210.359)" fill="white"/>
<rect width="24" height="3.08678" transform="matrix(0.866347 -0.499442 0.500558 0.865703 17.9131 204.234)" fill="white"/>
<rect width="24" height="3.08658" transform="matrix(0.89128 -0.453454 0.454527 0.890733 14.5334 197.924)" fill="white"/>
<rect width="24" height="3.08639" transform="matrix(0.91377 -0.406232 0.407242 0.91332 11.4888 191.445)" fill="white"/>
<rect width="24" height="3.08622" transform="matrix(0.933759 -0.357903 0.358833 0.933402 8.78735 184.815)" fill="white"/>
<rect width="24" height="3.08607" transform="matrix(0.951192 -0.308601 0.309433 0.950921 6.43726 178.053)" fill="white"/>
<rect width="24" height="3.08594" transform="matrix(0.966022 -0.25846 0.259179 0.965829 4.44458 171.177)" fill="white"/>
<rect width="24" height="3.08583" transform="matrix(0.978211 -0.207616 0.208208 0.978085 2.81445 164.205)" fill="white"/>
<rect width="24" height="3.08574" transform="matrix(0.987724 -0.156207 0.156662 0.987652 1.55225 157.157)" fill="white"/>
<rect width="24" height="3.08568" transform="matrix(0.994538 -0.104375 0.104682 0.994506 0.660645 150.052)" fill="white"/>
<rect width="24" height="3.08564" transform="matrix(0.998634 -0.0522583 0.0524137 0.998625 0.142822 142.91)" fill="white"/>
<rect y="135.75" width="24" height="3.08563" fill="white"/>
<rect width="24" height="3.09021" transform="matrix(-0.0524137 -0.998625 0.998634 -0.0522583 142.627 274)" fill="white"/>
<rect width="24" height="3.09018" transform="matrix(-0.104682 -0.994506 0.994538 -0.104375 149.784 273.519)" fill="white"/>
<rect width="24" height="3.09011" transform="matrix(-0.156662 -0.987652 0.987724 -0.156207 156.905 272.664)" fill="white"/>
<rect width="24" height="3.09003" transform="matrix(-0.208208 -0.978085 0.978211 -0.207616 163.973 271.438)" fill="white"/>
<rect width="24" height="3.08992" transform="matrix(-0.259179 -0.965829 0.966022 -0.25846 170.966 269.845)" fill="white"/>
<rect width="24" height="3.08979" transform="matrix(-0.309433 -0.950921 0.951192 -0.308601 177.866 267.888)" fill="white"/>
<rect width="24" height="3.08964" transform="matrix(-0.358833 -0.933402 0.933759 -0.357903 184.654 265.574)" fill="white"/>
<rect width="24" height="3.08947" transform="matrix(-0.407242 -0.91332 0.91377 -0.406232 191.311 262.908)" fill="white"/>
<rect width="24" height="3.08928" transform="matrix(-0.454527 -0.890733 0.89128 -0.453454 197.82 259.897)" fill="white"/>
<rect width="24" height="3.08908" transform="matrix(-0.500558 -0.865703 0.866347 -0.499442 204.162 256.551)" fill="white"/>
<rect width="24" height="3.08886" transform="matrix(-0.545209 -0.8383 0.839041 -0.544069 210.32 252.878)" fill="white"/>
<rect width="24" height="3.08864" transform="matrix(-0.588358 -0.808601 0.809433 -0.587213 216.277 248.888)" fill="white"/>
<rect width="24" height="3.08841" transform="matrix(-0.629886 -0.776688 0.777604 -0.628755 222.016 244.592)" fill="white"/>
<rect width="24" height="3.08817" transform="matrix(-0.669681 -0.742649 0.74364 -0.66858 227.523 240.002)" fill="white"/>
<rect width="24" height="3.08793" transform="matrix(-0.707633 -0.70658 0.707633 -0.70658 232.781 235.131)" fill="white"/>
<rect width="24" height="3.08769" transform="matrix(-0.74364 -0.66858 0.669681 -0.742649 237.777 229.991)" fill="white"/>
<rect width="24" height="3.08745" transform="matrix(-0.777604 -0.628755 0.629886 -0.776688 242.497 224.598)" fill="white"/>
<rect width="24" height="3.08722" transform="matrix(-0.809433 -0.587213 0.588358 -0.808601 246.927 218.965)" fill="white"/>
<rect width="24" height="3.08699" transform="matrix(-0.839041 -0.544069 0.545209 -0.8383 251.056 213.109)" fill="white"/>
<rect width="24" height="3.08678" transform="matrix(-0.866347 -0.499442 0.500558 -0.865703 254.873 207.045)" fill="white"/>
<rect width="24" height="3.08658" transform="matrix(-0.89128 -0.453454 0.454527 -0.890733 258.366 200.789)" fill="white"/>
<rect width="24" height="3.08639" transform="matrix(-0.91377 -0.406232 0.407242 -0.91332 261.527 194.36)" fill="white"/>
<rect width="24" height="3.08622" transform="matrix(-0.933759 -0.357903 0.358833 -0.933402 264.347 187.774)" fill="white"/>
<rect width="24" height="3.08607" transform="matrix(-0.951192 -0.308601 0.309433 -0.950921 266.817 181.05)" fill="white"/>
<rect width="24" height="3.08594" transform="matrix(-0.966022 -0.25846 0.259179 -0.965829 268.932 174.206)" fill="white"/>
<rect width="24" height="3.08583" transform="matrix(-0.978211 -0.207616 0.208208 -0.978085 270.685 167.261)" fill="white"/>
<rect width="24" height="3.08574" transform="matrix(-0.987724 -0.156207 0.156662 -0.987652 272.072 160.234)" fill="white"/>
<rect width="24" height="3.08568" transform="matrix(-0.994538 -0.104375 0.104682 -0.994506 273.088 153.144)" fill="white"/>
<rect width="24" height="3.08564" transform="matrix(-0.998634 -0.0522583 0.0524137 -0.998625 273.731 146.011)" fill="white"/>
<rect x="137.924" y="0.407471" width="24" height="3.09023" transform="rotate(90 137.924 0.407471)" fill="white"/>
<rect width="24" height="3.09021" transform="matrix(-0.0524137 0.998625 -0.998634 -0.0522583 145.092 0.675659)" fill="white"/>
<rect width="24" height="3.09018" transform="matrix(-0.104682 0.994506 -0.994538 -0.104375 152.236 1.31836)" fill="white"/>
<rect width="24" height="3.09011" transform="matrix(-0.156662 0.987652 -0.987724 -0.156207 159.336 2.33301)" fill="white"/>
<rect width="24" height="3.09003" transform="matrix(-0.208208 0.978085 -0.978211 -0.207616 166.374 3.71765)" fill="white"/>
<rect width="24" height="3.08992" transform="matrix(-0.259179 0.965829 -0.966022 -0.25846 173.329 5.46814)" fill="white"/>
<rect width="24" height="3.08979" transform="matrix(-0.309433 0.950921 -0.951192 -0.308601 180.184 7.57971)" fill="white"/>
<rect width="24" height="3.08964" transform="matrix(-0.358833 0.933402 -0.933759 -0.357903 186.917 10.0465)" fill="white"/>
<rect width="24" height="3.08947" transform="matrix(-0.407242 0.91332 -0.91377 -0.406232 193.513 12.8618)" fill="white"/>
<rect width="24" height="3.08928" transform="matrix(-0.454527 0.890733 -0.89128 -0.453454 199.955 15.9819)" fill="white"/>
<rect width="24" height="3.08908" transform="matrix(-0.500558 0.865703 -0.866347 -0.499442 206.224 19.4347)" fill="white"/>
<rect width="24" height="3.08886" transform="matrix(-0.545209 0.8383 -0.839041 -0.544069 212.305 23.2107)" fill="white"/>
<rect width="24" height="3.08864" transform="matrix(-0.588358 0.808601 -0.809433 -0.587213 218.18 27.2991)" fill="white"/>
<rect width="24" height="3.08841" transform="matrix(-0.629886 0.776688 -0.777604 -0.628755 223.833 31.6892)" fill="white"/>
<rect width="24" height="3.08817" transform="matrix(-0.669681 0.742649 -0.74364 -0.66858 229.25 36.3691)" fill="white"/>
<rect width="24" height="3.08793" transform="matrix(-0.707633 0.70658 -0.707633 -0.70658 234.414 41.3258)" fill="white"/>
<rect width="24" height="3.08769" transform="matrix(-0.74364 0.66858 -0.669681 -0.742649 239.311 46.5459)" fill="white"/>
<rect width="24" height="3.08745" transform="matrix(-0.777604 0.628755 -0.629886 -0.776688 243.929 52.0155)" fill="white"/>
<rect width="24" height="3.08722" transform="matrix(-0.809433 0.587213 -0.588358 -0.808601 248.254 57.7189)" fill="white"/>
<rect width="24" height="3.08699" transform="matrix(-0.839041 0.544069 -0.545209 -0.8383 252.275 63.6412)" fill="white"/>
<rect width="24" height="3.08678" transform="matrix(-0.866347 0.499442 -0.500558 -0.865703 255.98 69.7657)" fill="white"/>
<rect width="24" height="3.08658" transform="matrix(-0.89128 0.453454 -0.454527 -0.890733 259.36 76.0759)" fill="white"/>
<rect width="24" height="3.08639" transform="matrix(-0.91377 0.406232 -0.407242 -0.91332 262.405 82.5549)" fill="white"/>
<rect width="24" height="3.08622" transform="matrix(-0.933759 0.357903 -0.358833 -0.933402 265.106 89.1847)" fill="white"/>
<rect width="24" height="3.08607" transform="matrix(-0.951192 0.308601 -0.309433 -0.950921 267.456 95.9469)" fill="white"/>
<rect width="24" height="3.08594" transform="matrix(-0.966022 0.25846 -0.259179 -0.965829 269.449 102.823)" fill="white"/>
<rect width="24" height="3.08583" transform="matrix(-0.978211 0.207616 -0.208208 -0.978085 271.079 109.795)" fill="white"/>
<rect width="24" height="3.08574" transform="matrix(-0.987724 0.156207 -0.156662 -0.987652 272.341 116.843)" fill="white"/>
<rect width="24" height="3.08568" transform="matrix(-0.994538 0.104375 -0.104682 -0.994506 273.233 123.948)" fill="white"/>
<rect width="24" height="3.08564" transform="matrix(-0.998634 0.0522583 -0.0524137 -0.998625 273.75 131.09)" fill="white"/>
<rect x="273.893" y="138.25" width="24" height="3.08563" transform="rotate(180 273.893 138.25)" fill="white"/>
<rect width="24" height="3.09021" transform="matrix(0.0524137 0.998625 -0.998634 0.0522583 131.266 0)" fill="white"/>
<rect width="24" height="3.09018" transform="matrix(0.104682 0.994506 -0.994538 0.104375 124.11 0.481323)" fill="white"/>
<rect width="24" height="3.09011" transform="matrix(0.156662 0.987652 -0.987724 0.156207 116.988 1.33618)" fill="white"/>
<rect width="24" height="3.09003" transform="matrix(0.208208 0.978085 -0.978211 0.207616 109.921 2.56177)" fill="white"/>
<rect width="24" height="3.08992" transform="matrix(0.259179 0.965829 -0.966022 0.25846 102.927 4.15527)" fill="white"/>
<rect width="24" height="3.08979" transform="matrix(0.309433 0.950921 -0.951192 0.308601 96.0276 6.11169)" fill="white"/>
<rect width="24" height="3.08964" transform="matrix(0.358833 0.933402 -0.933759 0.357903 89.2393 8.42627)" fill="white"/>
<rect width="24" height="3.08947" transform="matrix(0.407242 0.91332 -0.91377 0.406232 82.582 11.0923)" fill="white"/>
<rect width="24" height="3.08928" transform="matrix(0.454527 0.890733 -0.89128 0.453454 76.0732 14.1028)" fill="white"/>
<rect width="24" height="3.08908" transform="matrix(0.500558 0.865703 -0.866347 0.499442 69.7314 17.449)" fill="white"/>
<rect width="24" height="3.08886" transform="matrix(0.545209 0.8383 -0.839041 0.544069 63.5737 21.1223)" fill="white"/>
<rect width="24" height="3.08864" transform="matrix(0.588358 0.808601 -0.809433 0.587213 57.6167 25.1122)" fill="white"/>
<rect width="24" height="3.08841" transform="matrix(0.629886 0.776688 -0.777604 0.628755 51.8772 29.4078)" fill="white"/>
<rect width="24" height="3.08817" transform="matrix(0.669681 0.742649 -0.74364 0.66858 46.3706 33.9978)" fill="white"/>
<rect width="24" height="3.08793" transform="matrix(0.707633 0.70658 -0.707633 0.70658 41.1121 38.869)" fill="white"/>
<rect width="24" height="3.08769" transform="matrix(0.74364 0.66858 -0.669681 0.742649 36.1165 44.0085)" fill="white"/>
<rect width="24" height="3.08745" transform="matrix(0.777604 0.628755 -0.629886 0.776688 31.3967 49.4019)" fill="white"/>
<rect width="24" height="3.08722" transform="matrix(0.809433 0.587213 -0.588358 0.808601 26.9663 55.0345)" fill="white"/>
<rect width="24" height="3.08699" transform="matrix(0.839041 0.544069 -0.545209 0.8383 22.8369 60.8911)" fill="white"/>
<rect width="24" height="3.08678" transform="matrix(0.866347 0.499442 -0.500558 0.865703 19.0203 66.9552)" fill="white"/>
<rect width="24" height="3.08658" transform="matrix(0.89128 0.453454 -0.454527 0.890733 15.5271 73.2106)" fill="white"/>
<rect width="24" height="3.08639" transform="matrix(0.91377 0.406232 -0.407242 0.91332 12.3662 79.64)" fill="white"/>
<rect width="24" height="3.08622" transform="matrix(0.933759 0.357903 -0.358833 0.933402 9.54639 86.2257)" fill="white"/>
<rect width="24" height="3.08607" transform="matrix(0.951192 0.308601 -0.309433 0.950921 7.07617 92.9498)" fill="white"/>
<rect width="24" height="3.08594" transform="matrix(0.966022 0.25846 -0.259179 0.965829 4.96143 99.7937)" fill="white"/>
<rect width="24" height="3.08583" transform="matrix(0.978211 0.207616 -0.208208 0.978085 3.20825 106.739)" fill="white"/>
<rect width="24" height="3.08574" transform="matrix(0.987724 0.156207 -0.156662 0.987652 1.82178 113.766)" fill="white"/>
<rect width="24" height="3.08568" transform="matrix(0.994538 0.104375 -0.104682 0.994506 0.805176 120.856)" fill="white"/>
<rect width="24" height="3.08564" transform="matrix(0.998634 0.0522583 -0.0524137 0.998625 0.161865 127.989)" fill="white"/>
</svg>
