<svg width="250" height="262" viewBox="0 0 250 262" fill="none" xmlns="http://www.w3.org/2000/svg">
<circle cx="125" cy="136.944" r="125" fill="black"/>
<mask id="path-2-outside-1_507_224" maskUnits="userSpaceOnUse" x="75.6978" y="0" width="97" height="24" fill="black">
<rect fill="white" x="75.6978" width="97" height="24"/>
<path fill-rule="evenodd" clip-rule="evenodd" d="M79.4925 21.3172C96.9702 8.21626 110.679 1.91116 124.371 2.00095C138.059 2.09069 151.839 8.57006 169.464 21.3172H79.4925ZM78.0002 21.817L77.6978 21.4188C95.7962 7.66996 110.037 0.906937 124.378 1.00097C138.714 1.09497 153.036 8.04147 171.296 21.4136L170.705 22.2204C170.637 22.1704 170.568 22.1205 170.5 22.0707V22.3172H78.0002V21.817Z"/>
</mask>
<path fill-rule="evenodd" clip-rule="evenodd" d="M79.4925 21.3172C96.9702 8.21626 110.679 1.91116 124.371 2.00095C138.059 2.09069 151.839 8.57006 169.464 21.3172H79.4925ZM78.0002 21.817L77.6978 21.4188C95.7962 7.66996 110.037 0.906937 124.378 1.00097C138.714 1.09497 153.036 8.04147 171.296 21.4136L170.705 22.2204C170.637 22.1704 170.568 22.1205 170.5 22.0707V22.3172H78.0002V21.817Z" fill="black"/>
<path d="M124.371 2.00095L124.365 3.00092L124.371 2.00095ZM79.4925 21.3172L78.8927 20.517L76.4911 22.3172H79.4925V21.3172ZM169.464 21.3172V22.3172H172.553L170.05 20.5069L169.464 21.3172ZM78.0002 21.817H79.0002V21.4802L78.7965 21.212L78.0002 21.817ZM77.6978 21.4188L77.0928 20.6225L76.2965 21.2274L76.9015 22.0237L77.6978 21.4188ZM124.378 1.00097L124.384 0.000988523L124.378 1.00097ZM171.296 21.4136L172.102 22.0044L172.693 21.1976L171.886 20.6068L171.296 21.4136ZM170.705 22.2204L170.114 23.0272L170.921 23.618L171.512 22.8112L170.705 22.2204ZM170.5 22.0707L171.09 21.2633L169.5 20.1013V22.0707H170.5ZM170.5 22.3172V23.3172H171.5V22.3172H170.5ZM78.0002 22.3172H77.0002V23.3172H78.0002V22.3172ZM124.378 1.00097C110.353 0.909008 96.4249 7.37522 78.8927 20.517L80.0923 22.1174C97.5154 9.05731 111.004 2.91332 124.365 3.00092L124.378 1.00097ZM170.05 20.5069C152.383 7.72885 138.388 1.09283 124.378 1.00097L124.365 3.00092C137.729 3.08855 151.296 9.41128 168.878 22.1275L170.05 20.5069ZM79.4925 22.3172H169.464V20.3172H79.4925V22.3172ZM78.7965 21.212L78.494 20.8139L76.9015 22.0237L77.2039 22.4219L78.7965 21.212ZM78.3027 22.2151C96.3511 8.50428 110.369 1.90914 124.371 2.00095L124.384 0.000988523C109.705 -0.0952629 95.2414 6.83565 77.0928 20.6225L78.3027 22.2151ZM124.371 2.00095C138.378 2.09279 152.483 8.87613 170.705 22.2204L171.886 20.6068C153.588 7.20681 139.05 0.0971465 124.384 0.000988523L124.371 2.00095ZM170.489 20.8227L169.898 21.6295L171.512 22.8112L172.102 22.0044L170.489 20.8227ZM171.296 21.4136C171.227 21.3634 171.159 21.3133 171.09 21.2633L169.91 22.8781C169.978 22.9277 170.046 22.9774 170.114 23.0272L171.296 21.4136ZM169.5 22.0707V22.3172H171.5V22.0707H169.5ZM170.5 21.3172H78.0002V23.3172H170.5V21.3172ZM79.0002 22.3172V21.817H77.0002V22.3172H79.0002Z" fill="black" mask="url(#path-2-outside-1_507_224)"/>
<path fill-rule="evenodd" clip-rule="evenodd" d="M78.0002 30.4476V30.3555C78.0001 30.3862 78 30.4169 78 30.4476H78.0002ZM157.38 10.3699C162.977 13.7872 166.999 17.9857 169.163 22.5458H79.8368C82.0007 17.9857 86.0233 13.7872 91.6195 10.3699C100.34 5.04498 112.167 2.05347 124.5 2.05347C136.833 2.05347 148.66 5.04498 157.38 10.3699Z" fill="black"/>
</svg>
